<?xml version="1.0" encoding="UTF-8"?> <svg xmlns="http://www.w3.org/2000/svg" viewBox="0 0 220 220"><g fill="none" stroke="#fa6533" stroke-linecap="round" stroke-linejoin="round" stroke-width="1.5"><g transform="translate(132.956 125.122)"><path d="M30.986 11.956L17.82 28.176l-7.268-8.11"></path><circle cx="19.954" cy="19.954" r="19.954"></circle></g><g transform="translate(58 54.253)"><path d="M84.307 27.852h.519a10.517 10.517 0 0110.517 10.517h0a10.517 10.517 0 01-10.517 10.516h-.519 0V27.852h0z"></path><path d="M95.342 38.368h0a7.938 7.938 0 007.939-7.938V16.385"></path><circle cx="3.252" cy="3.252" r="3.252" transform="translate(100.029 9.88)"></circle><rect width="55.128" height="25.722" rx="5.023" transform="translate(20.438 16.18)"></rect><path d="M91.432 63.846l-7.125-14.453s.007-39.514 0-39.544c-.026-.115.045.11 0 0-.011-.027.011.026 0 0-.023-.049.025.047 0 0 0-13.131-72.611-13.131-72.611 0v39.544L.015 73.087c-.011.023.01.047 0 .07s.009.047 0 .07c-.044.111.025.224 0 .34v.021a1.973 1.973 0 000 .378v12.819a8.062 8.062 0 008.063 8.063h59.926"></path><path d="M14.365 61.16h15.406"></path><path d="M40.299 61.16h15.406"></path><path d="M66.233 61.16h15.406"></path><path d="M31.266 25.362a3.3 3.3 0 00-4.67 0 3.3 3.3 0 000 4.671l4.67 4.67 4.67-4.67a3.3 3.3 0 000-4.671 3.3 3.3 0 00-4.67 0z"></path><path d="M48.002 25.362a3.3 3.3 0 00-4.67 0 3.3 3.3 0 000 4.671l4.67 4.67 4.671-4.67a3.3 3.3 0 000-4.671 3.3 3.3 0 00-4.671 0z"></path><path d="M64.737 25.362a3.3 3.3 0 00-4.67 0 3.3 3.3 0 000 4.671l4.67 4.67 4.671-4.67a3.3 3.3 0 000-4.671 3.3 3.3 0 00-4.671 0z"></path></g><path d="M58.014 127.34h74.941"></path></g></svg> 