<?xml version="1.0" encoding="UTF-8"?> <svg xmlns="http://www.w3.org/2000/svg" viewBox="0 0 220 220"><g fill="none" stroke="#fa6533" stroke-linecap="round" stroke-linejoin="round" stroke-width="1.5"><path d="M96.086 80.683a26.4 26.4 0 00-10.328 5.4 27.269 27.269 0 00-7.81 10.926 21.413 21.413 0 00-.945 13.049 17.362 17.362 0 003.548 6.846"></path><path d="M96.911 59.723a45.749 45.749 0 00-26.073 11.5 47.431 47.431 0 00-12.159 17.016 42.147 42.147 0 00-3.2 20.316 37.314 37.314 0 009.461 21.426"></path><path d="M110.419 140.579c7.8 3.155 19.162-3.83 25.981-16.24s6.622-25.747-.224-30.639"></path><path d="M151.722 65.405c.51.063 2.153.866 7.626 4 10.7 6.125 7.511 33.239-8.706 62.757s-37.454 46.468-48.3 41c-5.842-2.945-7.261-3.85-7.488-4.253"></path><path d="M146.659 64.123l-15 27.292a3.254 3.254 0 01-4.405 1.282l-9.476-5.207a3.255 3.255 0 01-1.282-4.406l15-27.292a3.252 3.252 0 014.4-1.281l9.477 5.206a3.252 3.252 0 011.281 4.4z"></path><path d="M106.361 137.473l-15 27.292a3.253 3.253 0 01-4.4 1.281l-9.477-5.206a3.253 3.253 0 01-1.281-4.406l14.995-27.292a3.253 3.253 0 014.405-1.281l9.476 5.206a3.255 3.255 0 011.282 4.406z"></path></g></svg> 