<?xml version="1.0" encoding="UTF-8"?> <svg xmlns="http://www.w3.org/2000/svg" viewBox="0 0 220 220"><g transform="translate(-1491 -5497)"><g fill="none" stroke="#fa6533" stroke-linecap="round" stroke-linejoin="round" stroke-width="1.5"><path d="M1553.808 5593.11a12.548 12.548 0 00-5.377 10.307 12.551 12.551 0 005.539 10.417"></path><path d="M1635.845 5614.083a12.555 12.555 0 005.923-10.667 12.55 12.55 0 00-5.539-10.417"></path><circle cx="1.5" cy="1.5" r="1.5" transform="translate(1611.138 5597.994)"></circle><circle cx="1.5" cy="1.5" r="1.5" transform="translate(1574.833 5597.994)"></circle><path d="M1599.04 5618.254a5.548 5.548 0 01-7.846 0"></path><path d="M1606.926 5660.024a28.6 28.6 0 01-30.466-4.378h0a64.116 64.116 0 01-22.275-48.583v-41.113c0-15.737 20.173-36.922 54.933-15.737 0 0-8.429 28.49-54.8 30.195"></path><path d="M1591.086 5542.436c7.691-4.269 39.571-7.5 44.964 23.513v41.113a64.066 64.066 0 01-2.757 18.6"></path><path d="M1602.845 5560.753s5.166 23.794 33.205 20.141"></path><path d="M1588.575 5639.619l.031.007a27.613 27.613 0 0013.02-.007h0"></path><path d="M1644.426 5643.577l-14.233 17.535-7.858-8.767"></path><circle cx="21.571" cy="21.571" r="21.571" transform="translate(1610.929 5630.656)"></circle></g></g></svg> 