<svg width="49" height="48" viewBox="0 0 49 48" fill="none" xmlns="http://www.w3.org/2000/svg">
<path d="M45.9335 14.4V12V9.6H43.5335V4.8H38.7335V2.4H36.3335H33.9335V0H31.5335H29.1335H26.7335H21.9335H19.5335H17.1335H14.7335V2.4H12.3335H9.9335V4.8H5.1335V9.6H2.7335V12V14.4H0.333496V19.2V24V28.8V33.6H2.7335V36V38.4H5.1335V43.2H9.9335V45.6H12.3335H14.7335V48H17.1335H19.5335H21.9335H26.7335H29.1335H31.5335H33.9335V45.6H36.3335H38.7335V43.2H43.5335V38.4H45.9335V36V33.6H48.3335V28.8V24V19.2V14.4H45.9335Z" fill="#00FF50"/>
</svg>
