<svg width="32" height="32" viewBox="0 0 32 32" fill="none" xmlns="http://www.w3.org/2000/svg">
<path fill-rule="evenodd" clip-rule="evenodd" d="M26.1178 5.25009C26.8989 6.03114 26.8989 7.29747 26.1178 8.07852L8.11783 26.0785C7.33678 26.8596 6.07045 26.8596 5.2894 26.0785C4.50835 25.2975 4.50835 24.0311 5.2894 23.2501L23.2894 5.25009C24.0704 4.46904 25.3368 4.46904 26.1178 5.25009Z" fill="white"/>
<path fill-rule="evenodd" clip-rule="evenodd" d="M5.2894 5.25009C6.07045 4.46904 7.33678 4.46904 8.11783 5.25009L26.1178 23.2501C26.8989 24.0311 26.8989 25.2975 26.1178 26.0785C25.3368 26.8596 24.0704 26.8596 23.2894 26.0785L5.2894 8.07852C4.50835 7.29747 4.50835 6.03114 5.2894 5.25009Z" fill="white"/>
</svg>
