<svg width="48" height="48" viewBox="0 0 48 48" fill="none" xmlns="http://www.w3.org/2000/svg">
<path d="M33.1198 48H14.8802C11.9087 48 10.2715 48 8.7314 47.2152C7.36772 46.5211 6.27981 45.4325 5.58501 44.0688C4.80022 42.5288 4.80022 40.8922 4.80022 37.9201V26.3792C3.97222 26.3389 3.29614 26.2208 2.62079 25.8774C1.71143 25.4137 0.986395 24.6887 0.522717 23.7793C0 22.7526 0 21.7216 0 20.1606V15.8406C0 14.2797 0 13.2487 0.522717 12.2212C0.986395 11.3119 1.71143 10.5868 2.62079 10.1231C3.6475 9.59971 4.67854 9.59971 6.24021 9.59971H8.8034C8.53844 8.83868 8.4002 8.03012 8.4002 7.19996C8.4002 5.28477 9.13459 3.48262 10.4687 2.12399C11.7943 0.773996 13.6331 0 15.5145 0C17.943 0 21.3407 0.964795 24.0004 5.45181C24.8291 4.05718 25.7888 2.91095 26.8602 2.03903C28.5205 0.686157 30.4134 0 32.4855 0C34.3661 0 36.2057 0.773996 37.5313 2.12399C38.8654 3.48262 39.5998 5.28477 39.5998 7.19996C39.5998 8.03012 39.4616 8.8394 39.1966 9.59971H41.7598C43.3207 9.59971 44.3525 9.59971 45.3792 10.1231C46.2879 10.5861 47.0136 11.3111 47.4766 12.2205C48 13.2472 48 14.279 48 15.8399V20.1599C48 21.7209 48 22.7526 47.4766 23.7793C47.0136 24.688 46.2879 25.4137 45.3792 25.8767C44.7046 26.2208 44.0278 26.3382 43.1998 26.3785V37.9193C43.1998 40.8908 43.1998 42.528 42.415 44.0681C41.7202 45.4318 40.6323 46.5197 39.2686 47.2145C37.7285 47.9993 36.092 48 33.1198 48ZM26.4001 43.1998H33.1198C35.2013 43.1998 36.5758 43.1998 37.0892 42.9384C37.5442 42.7066 37.9064 42.3444 38.1382 41.8901C38.4003 41.3768 38.4003 40.0016 38.4003 37.9201V26.4001H26.4001V43.1998ZM9.60043 26.4001V37.9201C9.60043 40.0016 9.60043 41.376 9.86179 41.8894C10.0936 42.3444 10.4558 42.7066 10.9101 42.9384C11.4235 43.1998 12.7987 43.1998 14.8802 43.1998H21.5999V26.4001H9.60043ZM26.4001 21.5999H41.7598C42.3135 21.5999 42.8823 21.5999 43.1731 21.5733C43.1998 21.2824 43.1998 20.7129 43.1998 20.1599V15.8399C43.1998 15.2862 43.1998 14.7174 43.1731 14.4266C42.8823 14.3999 42.3128 14.3999 41.7598 14.3999H26.4001V21.5999ZM4.82686 21.5733C5.11773 21.5999 5.68725 21.5999 6.24021 21.5999H21.5999V14.3999H6.24021C5.68653 14.3999 5.11773 14.3999 4.82686 14.4266C4.80022 14.7174 4.80022 15.287 4.80022 15.8399V20.1599C4.80022 20.7136 4.80022 21.2824 4.82686 21.5733ZM27.2778 9.59971H32.4855C33.0954 9.59971 33.6714 9.35563 34.1069 8.91212C34.5469 8.46356 34.7996 7.83932 34.7996 7.19996C34.7996 6.56061 34.5469 5.93565 34.1062 5.48709C33.6706 5.04357 33.0954 4.7995 32.4848 4.7995C31.5452 4.7995 30.7071 5.10549 29.9223 5.73405C29.1966 6.31581 28.5248 7.16324 27.9251 8.25476C27.6767 8.70692 27.4621 9.16267 27.2778 9.59971ZM15.5145 9.59971H20.7222C20.5379 9.16267 20.3226 8.70692 20.0742 8.25476C19.4745 7.16396 18.802 6.31581 18.077 5.73405C17.2922 5.10477 16.4541 4.7995 15.5145 4.7995C14.9046 4.7995 14.3286 5.04357 13.8931 5.48709C13.4524 5.93565 13.1997 6.55989 13.1997 7.19924C13.1997 7.8386 13.4524 8.46284 13.8931 8.9114C14.3286 9.35491 14.9039 9.59971 15.5145 9.59971Z" fill="#1E1E1E"/>
</svg>
