<svg width="28" height="30" viewBox="0 0 28 30" fill="none" xmlns="http://www.w3.org/2000/svg">
<path fill-rule="evenodd" clip-rule="evenodd" d="M13.9883 16.5028C17.71 16.5028 21.105 17.5385 23.6017 19.0131C24.85 19.7448 25.9117 20.6116 26.6817 21.546C27.44 22.469 28 23.5722 28 24.7542C28 26.0263 27.3583 27.0169 26.4367 27.7373C25.5617 28.4128 24.4183 28.863 23.1933 29.167C20.7433 29.7974 17.465 30 14 30C10.535 30 7.25667 29.7861 4.80667 29.167C3.58167 28.8518 2.43833 28.4128 1.56333 27.7373C0.641666 27.0281 0 26.0263 0 24.7542C0 23.5722 0.56 22.469 1.31833 21.546C2.08833 20.6116 3.15 19.7448 4.39833 19.0131C6.895 17.5497 10.2783 16.5028 14.0117 16.5028H13.9883ZM13.9883 19.5084C10.8383 19.5084 8.015 20.3977 5.99667 21.5797C4.99333 22.1764 4.235 22.818 3.745 23.4146C3.24333 24.0338 3.10333 24.4953 3.10333 24.7655C3.10333 24.9456 3.16167 25.137 3.5 25.4071C3.885 25.7111 4.56167 26.015 5.58833 26.2852C7.64167 26.8143 10.5817 27.0281 13.9883 27.0281C17.395 27.0281 20.335 26.8143 22.3883 26.2852C23.415 26.0263 24.0917 25.7111 24.4767 25.4071C24.815 25.1482 24.8733 24.9456 24.8733 24.7655C24.8733 24.4953 24.7333 24.0338 24.2317 23.4146C23.7417 22.818 22.9833 22.1764 21.98 21.5797C19.9733 20.3977 17.1383 19.5084 13.9883 19.5084ZM13.9883 0C18.2817 0 21.77 3.3546 21.77 7.50844C21.77 11.6623 18.2933 15.0169 13.9883 15.0169C9.68333 15.0169 6.20667 11.6623 6.20667 7.50844C6.20667 3.3546 9.68333 0 13.9883 0ZM13.9883 3.00563C11.41 3.00563 9.32167 5.02064 9.32167 7.50844C9.32167 9.99625 11.41 12.0113 13.9883 12.0113C16.5667 12.0113 18.655 9.99625 18.655 7.50844C18.655 5.02064 16.5667 3.00563 13.9883 3.00563Z" fill="#303030"/>
</svg>
